<mxfile host="65bd71144e">
    <diagram id="8prper10dRBGfHmkNG4C" name="Page-1">
        <mxGraphModel dx="1875" dy="1626" grid="1" gridSize="10" guides="1" tooltips="1" connect="0" arrows="1" fold="1" page="1" pageScale="1" pageWidth="850" pageHeight="1100" math="0" shadow="0">
            <root>
                <mxCell id="0"/>
                <mxCell id="1" parent="0"/>
                <mxCell id="2" value="Key Vault" style="rounded=1;whiteSpace=wrap;html=1;fillColor=#d5e8d4;strokeColor=#82b366;" vertex="1" parent="1">
                    <mxGeometry x="520" y="100" width="120" height="60" as="geometry"/>
                </mxCell>
                <mxCell id="3" value="Secret" style="rounded=1;whiteSpace=wrap;html=1;fillColor=#d5e8d4;strokeColor=#82b366;" vertex="1" parent="1">
                    <mxGeometry x="520" y="160" width="120" height="60" as="geometry"/>
                </mxCell>
                <mxCell id="5" style="edgeStyle=none;html=1;" edge="1" parent="1" source="4" target="2">
                    <mxGeometry relative="1" as="geometry"/>
                </mxCell>
                <mxCell id="4" value="AKS Secret Store Provider&amp;nbsp;" style="rounded=0;whiteSpace=wrap;html=1;fillColor=#d5e8d4;strokeColor=#82b366;" vertex="1" parent="1">
                    <mxGeometry x="270" y="100" width="120" height="60" as="geometry"/>
                </mxCell>
                <mxCell id="6" value="Azure RBAC" style="rounded=0;whiteSpace=wrap;html=1;fillColor=#d5e8d4;strokeColor=#82b366;" vertex="1" parent="1">
                    <mxGeometry x="480" y="140" width="80" height="20" as="geometry"/>
                </mxCell>
                <mxCell id="7" value="Agentpool Identity" style="shape=umlActor;verticalLabelPosition=bottom;verticalAlign=top;html=1;outlineConnect=0;" vertex="1" parent="1">
                    <mxGeometry x="310" y="-80" width="20" height="40" as="geometry"/>
                </mxCell>
                <mxCell id="rdXethBSnfbPIKvLFA0l-23" style="edgeStyle=none;html=1;" edge="1" parent="1" source="8" target="rdXethBSnfbPIKvLFA0l-19">
                    <mxGeometry relative="1" as="geometry"/>
                </mxCell>
                <mxCell id="8" value="Pod" style="ellipse;whiteSpace=wrap;html=1;aspect=fixed;" vertex="1" parent="1">
                    <mxGeometry x="120" y="250" width="80" height="80" as="geometry"/>
                </mxCell>
                <mxCell id="rdXethBSnfbPIKvLFA0l-22" style="edgeStyle=none;html=1;" edge="1" parent="1" source="9" target="rdXethBSnfbPIKvLFA0l-19">
                    <mxGeometry relative="1" as="geometry"/>
                </mxCell>
                <mxCell id="9" value="App Idenity" style="shape=umlActor;verticalLabelPosition=bottom;verticalAlign=top;html=1;outlineConnect=0;" vertex="1" parent="1">
                    <mxGeometry x="150" y="60" width="20" height="40" as="geometry"/>
                </mxCell>
                <mxCell id="10" value="" style="shape=cylinder3;whiteSpace=wrap;html=1;boundedLbl=1;backgroundOutline=1;size=15;" vertex="1" parent="1">
                    <mxGeometry x="120" y="350" width="60" height="80" as="geometry"/>
                </mxCell>
                <mxCell id="11" value="AKS Kubelet/Agentpool" style="rounded=0;whiteSpace=wrap;html=1;" vertex="1" parent="1">
                    <mxGeometry x="140" y="-80" width="120" height="60" as="geometry"/>
                </mxCell>
                <mxCell id="bSwIdGG6MyHF2cP_UTcB-21" style="edgeStyle=none;html=1;" edge="1" parent="1" source="12" target="bSwIdGG6MyHF2cP_UTcB-19">
                    <mxGeometry relative="1" as="geometry"/>
                </mxCell>
                <mxCell id="12" value="Secret Store Provider Identity" style="shape=umlActor;verticalLabelPosition=bottom;verticalAlign=top;html=1;outlineConnect=0;fillColor=#d5e8d4;strokeColor=#82b366;" vertex="1" parent="1">
                    <mxGeometry x="470" y="-70" width="20" height="40" as="geometry"/>
                </mxCell>
                <mxCell id="17" value="Pod" style="ellipse;whiteSpace=wrap;html=1;aspect=fixed;" vertex="1" parent="1">
                    <mxGeometry x="290" y="310" width="80" height="80" as="geometry"/>
                </mxCell>
                <mxCell id="18" value="AKS Workload Identity" style="text;html=1;align=center;verticalAlign=middle;whiteSpace=wrap;rounded=0;" vertex="1" parent="1">
                    <mxGeometry x="242.5" y="160" width="175" height="30" as="geometry"/>
                </mxCell>
                <mxCell id="rdXethBSnfbPIKvLFA0l-21" style="edgeStyle=none;html=1;" edge="1" parent="1" source="rdXethBSnfbPIKvLFA0l-19" target="9">
                    <mxGeometry relative="1" as="geometry"/>
                </mxCell>
                <mxCell id="rdXethBSnfbPIKvLFA0l-19" value="Service Account" style="rounded=0;whiteSpace=wrap;html=1;" vertex="1" parent="1">
                    <mxGeometry x="100" y="170" width="120" height="40" as="geometry"/>
                </mxCell>
                <mxCell id="bSwIdGG6MyHF2cP_UTcB-18" value="SecretProviderClass&lt;div&gt;&quot;Volume Provider&quot;&lt;/div&gt;" style="rounded=0;whiteSpace=wrap;html=1;fillColor=#dae8fc;strokeColor=#6c8ebf;" vertex="1" parent="1">
                    <mxGeometry x="270" y="250" width="120" height="60" as="geometry"/>
                </mxCell>
                <mxCell id="bSwIdGG6MyHF2cP_UTcB-20" style="edgeStyle=none;html=1;" edge="1" parent="1" source="bSwIdGG6MyHF2cP_UTcB-19" target="12">
                    <mxGeometry relative="1" as="geometry"/>
                </mxCell>
                <mxCell id="bSwIdGG6MyHF2cP_UTcB-19" value="Service Account" style="rounded=0;whiteSpace=wrap;html=1;" vertex="1" parent="1">
                    <mxGeometry x="270" y="50" width="120" height="40" as="geometry"/>
                </mxCell>
                <mxCell id="bSwIdGG6MyHF2cP_UTcB-22" value="Workload Identity" style="rounded=1;whiteSpace=wrap;html=1;fillColor=#ffe6cc;strokeColor=#d79b00;" vertex="1" parent="1">
                    <mxGeometry x="-40" y="15" width="240" height="110" as="geometry"/>
                </mxCell>
                <mxCell id="bSwIdGG6MyHF2cP_UTcB-23" value="Key Vault CSI Storage Class" style="rounded=1;whiteSpace=wrap;html=1;fillColor=#ffe6cc;strokeColor=#d79b00;" vertex="1" parent="1">
                    <mxGeometry x="400" y="15" width="240" height="110" as="geometry"/>
                </mxCell>
                <mxCell id="bSwIdGG6MyHF2cP_UTcB-24" value="Pod Secret Mount" style="rounded=1;whiteSpace=wrap;html=1;fillColor=#ffe6cc;strokeColor=#d79b00;" vertex="1" parent="1">
                    <mxGeometry x="-10" y="380" width="240" height="110" as="geometry"/>
                </mxCell>
                <mxCell id="bSwIdGG6MyHF2cP_UTcB-25" value="Azure RBAC" style="rounded=1;whiteSpace=wrap;html=1;fillColor=#ffe6cc;strokeColor=#d79b00;" vertex="1" parent="1">
                    <mxGeometry x="340" y="-190" width="240" height="110" as="geometry"/>
                </mxCell>
            </root>
        </mxGraphModel>
    </diagram>
    <diagram id="bdwAdcDkF2hgQM_MXrQB" name="Workload identities">
        <mxGraphModel dx="666" dy="342" grid="1" gridSize="10" guides="1" tooltips="1" connect="1" arrows="1" fold="1" page="1" pageScale="1" pageWidth="850" pageHeight="1100" math="0" shadow="0">
            <root>
                <mxCell id="0"/>
                <mxCell id="1" parent="0"/>
                <mxCell id="KLUnq4YzO4wAaCX-O9DC-1" value="Workload Identity" style="text;html=1;align=center;verticalAlign=middle;whiteSpace=wrap;rounded=0;" vertex="1" parent="1">
                    <mxGeometry x="250" y="80" width="200" height="30" as="geometry"/>
                </mxCell>
                <mxCell id="KLUnq4YzO4wAaCX-O9DC-2" value="Identity Provider&lt;div&gt;AKS&lt;/div&gt;" style="rounded=0;whiteSpace=wrap;html=1;" vertex="1" parent="1">
                    <mxGeometry x="70" y="140" width="120" height="60" as="geometry"/>
                </mxCell>
                <mxCell id="KLUnq4YzO4wAaCX-O9DC-3" value="Identity Provider&lt;div&gt;Entra ID&lt;/div&gt;" style="rounded=0;whiteSpace=wrap;html=1;" vertex="1" parent="1">
                    <mxGeometry x="470" y="140" width="120" height="60" as="geometry"/>
                </mxCell>
                <mxCell id="KLUnq4YzO4wAaCX-O9DC-4" value="Service Accounts" style="shape=umlActor;verticalLabelPosition=bottom;verticalAlign=top;html=1;outlineConnect=0;" vertex="1" parent="1">
                    <mxGeometry x="115" y="220" width="30" height="60" as="geometry"/>
                </mxCell>
                <mxCell id="KLUnq4YzO4wAaCX-O9DC-5" value="Managed Identities" style="shape=umlActor;verticalLabelPosition=bottom;verticalAlign=top;html=1;outlineConnect=0;" vertex="1" parent="1">
                    <mxGeometry x="515" y="210" width="30" height="60" as="geometry"/>
                </mxCell>
                <mxCell id="KLUnq4YzO4wAaCX-O9DC-6" value="/token" style="rounded=0;whiteSpace=wrap;html=1;" vertex="1" parent="1">
                    <mxGeometry x="470" y="300" width="120" height="20" as="geometry"/>
                </mxCell>
                <mxCell id="KLUnq4YzO4wAaCX-O9DC-8" style="edgeStyle=none;html=1;" edge="1" parent="1" source="KLUnq4YzO4wAaCX-O9DC-7" target="KLUnq4YzO4wAaCX-O9DC-6">
                    <mxGeometry relative="1" as="geometry"/>
                </mxCell>
                <mxCell id="KLUnq4YzO4wAaCX-O9DC-9" style="edgeStyle=none;html=1;" edge="1" parent="1" source="KLUnq4YzO4wAaCX-O9DC-7" target="KLUnq4YzO4wAaCX-O9DC-4">
                    <mxGeometry relative="1" as="geometry"/>
                </mxCell>
                <mxCell id="KLUnq4YzO4wAaCX-O9DC-7" value="JWT Token" style="shape=parallelogram;perimeter=parallelogramPerimeter;whiteSpace=wrap;html=1;fixedSize=1;" vertex="1" parent="1">
                    <mxGeometry x="230" y="290" width="120" height="40" as="geometry"/>
                </mxCell>
            </root>
        </mxGraphModel>
    </diagram>
</mxfile>